# xmcd
#
# Track frame offsets: 
#        150
#        8315
#        25262
#        35952
#        44850
#        55512
#        63240
#        70850
#        80600
#        89422
#        99275
#        108022
#        121960
#        131815
#        144862
#        158742
#        168550
#        180717
#        199480
#        211902
#        217380
#        232337
#        248027
#        257065
#        270720
#        285995
#        294877
#        306382
#        320517
#        327510
#        341947
#
# Disc length: 4713 seconds
#
# Revision: 2
# Processed by: cddbd v1.5.2PL0 Copyright (c) Steve Scherf et al.
# Submitted via: ExactAudioCopy v0.95b4
#
DISCID=d812671f
DTITLE=Sons Of The Pioneers - Songs Of The Prairie, The Standard Trans
DTITLE=criptions Disc 4
DYEAR=1900
DGENRE=
TTITLE0=Ain't We Crazy 1934
TTITLE1=Gentle Nettie Moore 1934
TTITLE2=Jim Crack Corn 1934
TTITLE3=Skinner's Sock 1934
TTITLE4=Old Pine Tree 1934
TTITLE5=Whing-Ding 1934
TTITLE6=Sailor's Horn Pipe 1934
TTITLE7=Alabamy Stomp 1934
TTITLE8=Cider Schottische 1934
TTITLE9=Rye Straw 1934
TTITLE10=Square Dance 1934
TTITLE11=Dear Old Girl 1934
TTITLE12=Carry Me Along 1934
TTITLE13=The Gospel Train 1934
TTITLE14=Whispering Wind 1935
TTITLE15=Sing, Cowboy Sing 1935
TTITLE16=A Sandman Lullaby 1935
TTITLE17=Blue Prairie 1935
TTITLE18=A Summer Rain 1935
TTITLE19=Syncopated Rhythm 1935
TTITLE20=Old Oaken Bucket 1935
TTITLE21=Chant Of The Plains 1935
TTITLE22=Bluebird Blues 1935
TTITLE23=Old Black Joe 1935
TTITLE24=I Miss You So My Darling 1935
TTITLE25=Barnyard Jubilee 1935
TTITLE26=Sweet Genevieve 1935
TTITLE27=Chuck Wagon Blues 1934
TTITLE28=Hand Me Down My Walking Cane 1935
TTITLE29=In The Gloaming 1935
TTITLE30=swing low sweet chariot 1935
EXTD=
EXTT0=
EXTT1=
EXTT2=
EXTT3=
EXTT4=
EXTT5=
EXTT6=
EXTT7=
EXTT8=
EXTT9=
EXTT10=
EXTT11=
EXTT12=
EXTT13=
EXTT14=
EXTT15=
EXTT16=
EXTT17=
EXTT18=
EXTT19=
EXTT20=
EXTT21=
EXTT22=
EXTT23=
EXTT24=
EXTT25=
EXTT26=
EXTT27=
EXTT28=
EXTT29=
EXTT30=
PLAYORDER=
